<?xml version="1.0" standalone="no"?>
<!DOCTYPE svg PUBLIC "-//W3C//DTD SVG 20010904//EN"
 "http://www.w3.org/TR/2001/REC-SVG-20010904/DTD/svg10.dtd">
<svg version="1.0" xmlns="http://www.w3.org/2000/svg"
 width="185.000000pt" height="60.000000pt" viewBox="0 0 185.000000 60.000000"
 preserveAspectRatio="xMidYMid meet">

<g transform="translate(0.000000,60.000000) scale(0.100000,-0.100000)"
fill="#000000" stroke="none">
<path d="M0 300 l0 -300 925 0 925 0 0 300 0 300 -925 0 -925 0 0 -300z m447
159 c34 -13 80 -55 99 -91 8 -15 14 -48 14 -73 0 -152 -184 -231 -287 -122
-43 45 -53 69 -53 122 0 118 120 205 227 164z m398 -5 c21 -21 13 -29 -13 -13
-28 18 -52 5 -52 -29 0 -26 15 -52 31 -52 4 0 15 7 24 16 20 20 33 11 15 -11
-18 -22 -67 -19 -80 4 -34 65 26 133 75 85z m251 -8 c9 -9 10 -17 4 -21 -14
-9 -12 -62 3 -69 6 -3 3 -5 -8 -3 -15 2 -21 12 -26 42 -6 37 -3 65 8 65 2 0
11 -6 19 -14z m237 2 c2 -7 2 -28 -1 -47 -3 -22 0 -36 9 -43 11 -7 9 -8 -6 -6
-29 5 -43 108 -15 108 5 0 10 -6 13 -12z m-397 -16 c17 -11 22 -35 13 -59 -12
-32 -56 -31 -70 1 -20 42 20 83 57 58z m104 -12 c13 -24 13 -70 0 -70 -5 0
-10 16 -10 35 0 28 -4 35 -20 35 -16 0 -20 -7 -20 -35 0 -19 -4 -35 -10 -35
-5 0 -10 20 -10 43 0 42 1 44 30 45 20 0 33 -6 40 -18z m148 -26 c3 -40 3 -41
-30 -40 -26 1 -33 5 -33 21 0 12 8 21 20 23 11 2 25 9 30 14 7 7 1 9 -17 6
-27 -5 -35 1 -21 16 4 4 16 6 28 4 16 -2 21 -12 23 -44z m92 31 c11 -13 8 -14
-19 -9 -28 6 -31 4 -31 -19 0 -31 16 -43 35 -27 12 10 15 9 15 -4 0 -10 -8
-16 -23 -16 -29 0 -47 18 -47 45 0 41 45 60 70 30z m160 -60 c10 0 16 12 18
38 5 53 22 46 22 -9 0 -45 0 -45 -32 -42 -32 3 -33 5 -34 48 l-2 45 7 -40 c4
-26 11 -40 21 -40z m117 58 c3 -7 -3 -9 -16 -6 -12 3 -21 1 -21 -6 0 -6 6 -11
13 -11 19 0 36 -20 30 -36 -6 -17 -49 -19 -59 -3 -4 7 0 9 14 5 30 -10 37 12
8 24 -25 9 -34 29 -19 44 11 10 46 3 50 -11z m-437 -153 c0 -5 -4 -10 -10 -10
-5 0 -10 5 -10 10 0 6 5 10 10 10 6 0 10 -4 10 -10z m-47 -13 c3 -7 3 -25 0
-40 -3 -15 0 -34 8 -43 11 -14 10 -15 -11 -12 -20 2 -26 10 -31 43 -4 22 -4
45 -2 52 7 17 29 17 36 0z m-245 -54 c3 -43 3 -43 -31 -43 -37 0 -54 19 -34
39 6 6 19 11 29 11 10 0 18 5 18 11 0 7 -10 9 -25 5 -14 -4 -25 -3 -25 2 0 16
14 23 40 20 22 -3 25 -8 28 -45z m100 0 c4 -50 -15 -59 -20 -10 -2 20 -8 32
-18 32 -10 0 -16 -12 -18 -32 -5 -49 -22 -40 -22 11 l0 44 38 -1 c36 -2 37 -3
40 -44z m44 15 l12 -33 8 33 c5 17 13 32 19 32 7 0 9 -10 4 -27 -13 -53 -34
-93 -49 -93 -18 0 -22 16 -6 22 7 2 5 19 -5 47 -18 52 -18 51 -4 51 5 0 15
-15 21 -32z m148 -13 c0 -25 -4 -45 -10 -45 -5 0 -10 20 -10 45 0 25 5 45 10
45 6 0 10 -20 10 -45z m138 32 c18 -12 16 -77 -3 -77 -11 0 -15 11 -15 36 0
45 -24 42 -28 -4 -4 -44 -22 -40 -22 4 0 45 -24 42 -28 -4 -5 -48 -22 -38 -22
12 l0 43 53 -1 c28 0 58 -5 65 -9z m90 1 c20 -20 14 -38 -13 -38 -14 0 -25 -5
-25 -11 0 -7 10 -9 26 -5 19 5 25 3 22 -6 -6 -18 -46 -22 -64 -8 -29 25 -11
80 26 80 9 0 21 -5 28 -12z"/>
<path d="M894 405 c-8 -21 3 -45 20 -45 16 0 31 34 21 50 -9 15 -35 12 -41 -5z"/>
<path d="M1145 379 c-4 -6 -4 -13 -1 -16 8 -8 36 5 36 17 0 13 -27 13 -35 -1z"/>
<path d="M785 190 c-3 -5 1 -10 9 -10 9 0 16 5 16 10 0 6 -4 10 -9 10 -6 0
-13 -4 -16 -10z"/>
<path d="M1310 220 c0 -5 7 -10 15 -10 8 0 15 5 15 10 0 6 -7 10 -15 10 -8 0
-15 -4 -15 -10z"/>
</g>
</svg>
